<svg width="250" height="250" viewBox="0 0 250 250" fill="none" xmlns="http://www.w3.org/2000/svg">
<path d="M93.6938 136.348H97.9476C100.388 136.348 101.831 137.277 101.831 139.435V139.504C101.831 140.683 101.298 141.612 99.9553 142.026C101.568 142.377 102.333 143.256 102.333 144.831V144.9C102.333 147.108 100.871 148.219 98.2613 148.219H93.6938V136.342V136.348ZM97.6779 141.348C99.1397 141.348 99.7044 140.815 99.7044 139.604V139.535C99.7044 138.406 99.0581 137.923 97.6465 137.923H95.8521V141.342H97.6779V141.348ZM97.9916 146.644C99.4722 146.644 100.15 145.979 100.15 144.749V144.68C100.15 143.45 99.4659 142.835 97.841 142.835H95.8458V146.637H97.9916V146.644Z" fill="black"/>
<path d="M107.578 143.074L103.645 136.348H106.085L108.758 141.267L111.368 136.348H113.526L109.806 143.093V148.225H107.578V143.074Z" fill="black"/>
<path d="M121.851 136.348H124.078V148.225H121.851V136.348Z" fill="black"/>
<path d="M128.195 136.348H130.403V141.399H135.736V136.348H137.963V148.225H135.736V143.174H130.403V148.225H128.195V136.348Z" fill="black"/>
<path d="M141.069 142.365V142.233C141.069 138.695 143.529 136.172 146.998 136.172C149.539 136.172 151.798 137.333 152.112 140.175H149.903C149.64 138.6 148.573 137.917 147.03 137.917C144.702 137.917 143.359 139.642 143.359 142.252V142.384C143.359 144.925 144.539 146.669 147.03 146.669C149.257 146.669 150.167 145.326 150.236 143.682H147.243V142.02H152.406V143.118C152.406 146.405 150.349 148.4 146.992 148.4C143.19 148.4 141.063 145.878 141.063 142.371L141.069 142.365Z" fill="black"/>
<path d="M83.9931 141.725H32.3955V142.836H83.9931V141.725Z" fill="black"/>
<path d="M213.69 141.725H162.143V142.836H213.69V141.725Z" fill="black"/>
<path d="M110.269 101.307H112.465V123.279H110.476L99.4965 107.399V123.279H97.3006V101.282L99.2894 101.307L110.269 117.187V101.307ZM86.1328 117.287L82.3809 101.307H80.643L76.5586 118.486L72.6562 101.307L69.0173 101.282L74.4631 123.285H76.7343L80.7246 106.822L84.5831 123.285H86.3838L91.8296 101.314H89.8157L86.1391 117.294L86.1328 117.287ZM161.465 107.017C161.465 110.198 159.47 113.592 153.88 113.592H151.088V123.304H147.543V101.307H153.359C155.988 101.307 157.701 101.383 159.244 102.393C161.176 103.679 161.465 105.844 161.465 107.017ZM157.682 107.042C157.682 105.266 157.092 103.817 156.176 103.346C155.712 103.133 155.222 103.008 154.714 102.97C154.25 102.926 153.786 102.932 153.334 102.932H151.088V111.898H153.164C156.163 111.898 157.682 110.26 157.682 107.036V107.042ZM37.3523 112.858L44.5862 123.342H40.9285L34.6482 113.423L34.6231 113.385H32.9605V123.342H29.4596V101.307H34.6231C36.9382 101.307 38.4628 101.307 40.1129 102.23C41.719 103.152 42.6852 104.877 42.635 106.734C42.635 109.821 40.7528 112.049 37.4715 112.833L37.3523 112.864V112.858ZM39.0086 107.111C39.0086 105.342 38.4189 103.886 37.5091 103.39C37.0449 103.165 36.5492 103.033 36.0348 102.989C35.5015 102.939 34.9556 102.939 34.4223 102.939H32.9793V111.936H34.1902C37.3899 111.936 39.0086 110.311 39.0086 107.111ZM22.4703 120.707C21.3535 121.441 20.0423 121.867 18.6996 121.93C15.9391 121.93 12.9715 118.925 12.9715 112.331C12.9715 106.665 15.4246 102.707 18.938 102.707C20.1991 102.732 21.4602 103.052 22.577 103.629L22.6774 103.679L23.5055 102.142L23.4177 102.098C21.9621 101.383 20.3309 101 18.7059 101C18.6557 101 18.6055 101 18.5553 101C11.9551 101 9 106.734 9 112.412C9 115.512 9.81562 118.316 11.29 120.305C12.9087 122.482 15.2489 123.63 18.066 123.63C19.967 123.612 21.8366 123.097 23.4804 122.15L23.5683 122.106L22.5707 120.638L22.464 120.7L22.4703 120.707ZM62.6429 103.315C64.5125 105.229 65.4599 108.165 65.4599 112.036C65.4599 119.094 61.9653 123.655 56.5633 123.655C51.1614 123.655 47.9428 119.226 47.9428 112.362V112.306C47.9428 108.755 48.8777 105.812 50.6532 103.804C52.2405 102.004 54.4615 101.013 56.9147 101.013C59.1482 101.013 61.1873 101.834 62.6429 103.321V103.315ZM61.5637 112.312C61.5637 105.919 59.9262 102.543 56.8269 102.543C53.7275 102.543 51.8516 106.22 51.8516 112.381V112.419C51.8516 119.508 54.449 122.024 56.6763 122.024C57.4919 122.024 61.5637 121.554 61.5637 112.312ZM122.861 112.569H130.271V110.844H122.861V103.008H130.772V101.295L119.316 101.27V123.273H130.917V121.529H122.861V112.569ZM216.005 102.7V101.301H201.838V103.077H211.952L201.186 121.936V123.304H216.589V121.453H205.314L216.011 102.707L216.005 102.7ZM190.125 101.301L197.867 123.304H194.015L191.423 115.581H185.356L182.828 123.304H180.657L188.318 101.301H190.118H190.125ZM191.103 114.044L188.657 106.226L186.153 114.044H191.103ZM169.521 101.301H165.995V123.304H177.326V121.535H169.521V101.307V101.301ZM229.331 101.301L237.073 123.304H233.221L230.63 115.581H224.563L222.034 123.304H219.864L227.524 101.301H229.325H229.331ZM230.31 114.044L227.863 106.226L225.36 114.044H230.31Z" fill="black"/>
<path d="M240.31 101.998C239.852 101.54 239.294 101.314 238.641 101.314C237.989 101.314 237.437 101.54 236.979 101.998C236.521 102.456 236.289 103.014 236.289 103.66C236.289 104.307 236.514 104.871 236.972 105.336C237.43 105.8 237.983 106.032 238.641 106.032C239.3 106.032 239.852 105.8 240.31 105.336C240.768 104.871 241 104.313 241 103.66C241 103.008 240.768 102.456 240.31 101.998ZM240.078 105.11C239.683 105.505 239.206 105.706 238.641 105.706C238.077 105.706 237.6 105.505 237.205 105.11C236.816 104.714 236.615 104.231 236.615 103.667C236.615 103.102 236.809 102.625 237.205 102.23C237.6 101.835 238.077 101.634 238.635 101.634C239.193 101.634 239.677 101.835 240.072 102.23C240.467 102.625 240.662 103.102 240.662 103.667C240.662 104.231 240.467 104.714 240.072 105.11H240.078Z" fill="black"/>
<path d="M239.69 104.915C239.69 104.915 239.672 104.846 239.665 104.784C239.665 104.715 239.659 104.652 239.659 104.589V104.401C239.659 104.269 239.615 104.137 239.521 103.999C239.427 103.861 239.276 103.78 239.076 103.748C239.232 103.723 239.358 103.679 239.452 103.623C239.621 103.516 239.703 103.341 239.703 103.115C239.703 102.789 239.571 102.569 239.301 102.462C239.151 102.4 238.919 102.368 238.592 102.368H237.689V104.953H238.147V103.937H238.505C238.749 103.937 238.912 103.962 239.013 104.018C239.176 104.112 239.257 104.313 239.257 104.608V104.815L239.27 104.897C239.27 104.897 239.27 104.915 239.27 104.928V104.953H239.703L239.684 104.922L239.69 104.915ZM238.994 103.554C238.9 103.592 238.756 103.61 238.561 103.61H238.147V102.676H238.536C238.787 102.676 238.975 102.707 239.088 102.77C239.201 102.832 239.257 102.958 239.257 103.146C239.257 103.347 239.17 103.479 238.988 103.548L238.994 103.554Z" fill="black"/>
</svg>
