<?xml version="1.0" encoding="UTF-8" standalone="no"?>
<!DOCTYPE svg PUBLIC "-//W3C//DTD SVG 1.1//EN" "http://www.w3.org/Graphics/SVG/1.1/DTD/svg11.dtd">
<svg width="100%" height="100%" viewBox="0 0 2646 725" version="1.1" xmlns="http://www.w3.org/2000/svg" xmlns:xlink="http://www.w3.org/1999/xlink" xml:space="preserve" xmlns:serif="http://www.serif.com/" style="fill-rule:evenodd;clip-rule:evenodd;stroke-linejoin:round;stroke-miterlimit:2;">
    <g transform="matrix(4.16667,0,0,4.16667,0,0)">
        <path d="M16.083,110.091L0,110.091L0,98.178L45.016,98.178L45.016,110.091L29.188,110.091L29.188,157.492L16.083,157.492L16.083,110.091Z" style="fill:rgb(3,4,4);fill-rule:nonzero;"/>
        <path d="M48.332,98.178L61.011,98.178L61.011,119.792C62.713,116.133 67.308,113.665 73.01,113.665C83.222,113.665 88.923,120.388 88.923,131.452L88.923,157.492L76.244,157.492L76.244,132.983C76.244,128.047 73.691,124.899 68.925,124.899C64.33,124.899 61.011,128.388 61.011,133.409L61.011,157.492L48.332,157.492L48.332,98.178Z" style="fill:rgb(3,4,4);fill-rule:nonzero;"/>
        <path d="M124.917,131.196C124.917,127.367 121.003,124.133 115.981,124.133C110.706,124.133 106.28,127.282 106.025,131.196L124.917,131.196ZM93.26,135.961C93.26,122.346 102.962,113.58 115.981,113.58C129.087,113.58 137.682,123.282 137.682,135.281C137.682,135.281 137.682,137.493 137.427,139.451L105.94,139.451C106.195,144.556 110.535,147.79 117.259,147.79C125.428,147.79 130.022,145.323 132.491,143.62L132.491,154.683C128.491,157.236 124.066,158.598 116.577,158.598C102.707,158.598 93.26,149.832 93.26,136.387L93.26,135.961Z" style="fill:rgb(3,4,4);fill-rule:nonzero;"/>
        <path d="M162.441,96.051L193.757,130.175L225.073,96.051L225.073,157.492L212.479,157.492L212.479,127.367L193.757,148.386L175.035,127.367L175.035,157.492L162.441,157.492L162.441,96.051Z" style="fill:rgb(3,4,4);fill-rule:nonzero;"/>
        <path d="M253.066,147.28C259.278,147.28 264.214,142.344 264.214,136.046C264.214,129.834 259.278,124.814 253.066,124.814C246.769,124.814 241.918,129.834 241.918,136.046C241.918,142.344 246.769,147.28 253.066,147.28ZM253.066,113.326C266.256,113.326 276.894,123.367 276.894,136.046C276.894,148.726 266.256,158.768 253.066,158.768C239.791,158.768 229.239,148.726 229.239,136.046C229.239,123.367 239.791,113.326 253.066,113.326Z" style="fill:rgb(3,4,4);fill-rule:nonzero;"/>
        <path d="M283.869,126.09L278.166,126.09L278.166,114.602L283.869,114.602L283.869,98.178L296.207,98.178L296.207,114.602L305.654,114.602L305.654,126.09L296.207,126.09L296.207,157.492L283.869,157.492L283.869,126.09Z" style="fill:rgb(3,4,4);fill-rule:nonzero;"/>
        <rect x="309.14" y="98.178" width="12.68" height="59.314" style="fill:rgb(3,4,4);fill-rule:nonzero;"/>
        <path d="M357.644,131.196C357.644,127.367 353.73,124.133 348.708,124.133C343.433,124.133 339.007,127.282 338.752,131.196L357.644,131.196ZM325.988,135.961C325.988,122.346 335.689,113.58 348.708,113.58C361.814,113.58 370.409,123.282 370.409,135.281C370.409,135.281 370.409,137.493 370.154,139.451L338.667,139.451C338.922,144.556 343.262,147.79 349.986,147.79C358.155,147.79 362.75,145.323 365.218,143.62L365.218,154.683C361.218,157.236 356.793,158.598 349.304,158.598C335.434,158.598 325.988,149.832 325.988,136.387L325.988,135.961Z" style="fill:rgb(3,4,4);fill-rule:nonzero;"/>
        <path d="M368.62,114.602L381.809,114.602L393.212,143.195L404.786,114.602L417.976,114.602L392.702,174L379.682,174L386.575,158.257L368.62,114.602Z" style="fill:rgb(3,4,4);fill-rule:nonzero;"/>
        <path d="M439.247,98.178L478.306,98.178L478.306,110.091L452.351,110.091L452.351,122.261L476.008,122.261L476.008,133.919L452.351,133.919L452.351,157.492L439.247,157.492L439.247,98.178Z" style="fill:rgb(3,4,4);fill-rule:nonzero;"/>
        <path d="M504.087,147.28C510.3,147.28 515.236,142.344 515.236,136.046C515.236,129.834 510.3,124.814 504.087,124.814C497.79,124.814 492.94,129.834 492.94,136.046C492.94,142.344 497.79,147.28 504.087,147.28ZM504.087,113.326C517.278,113.326 527.916,123.367 527.916,136.046C527.916,148.726 517.278,158.768 504.087,158.768C490.812,158.768 480.26,148.726 480.26,136.046C480.26,123.367 490.812,113.326 504.087,113.326Z" style="fill:rgb(3,4,4);fill-rule:nonzero;"/>
        <path d="M554.292,147.28C560.504,147.28 565.44,142.344 565.44,136.046C565.44,129.834 560.504,124.814 554.292,124.814C547.995,124.814 543.144,129.834 543.144,136.046C543.144,142.344 547.995,147.28 554.292,147.28ZM554.292,113.326C567.482,113.326 578.12,123.367 578.12,136.046C578.12,148.726 567.482,158.768 554.292,158.768C541.016,158.768 530.464,148.726 530.464,136.046C530.464,123.367 541.016,113.326 554.292,113.326Z" style="fill:rgb(3,4,4);fill-rule:nonzero;"/>
        <rect x="582.711" y="98.178" width="12.68" height="59.314" style="fill:rgb(3,4,4);fill-rule:nonzero;"/>
        <path d="M634.915,83.133C634.915,87.863 631.081,91.697 626.351,91.697C621.621,91.697 617.787,87.863 617.787,83.133C617.787,78.403 621.621,74.568 626.351,74.568C631.081,74.568 634.915,78.403 634.915,83.133Z" style="fill:rgb(253,181,37);fill-rule:nonzero;"/>
        <path d="M575.078,0.805C599.917,0.805 620.77,28.717 626.664,66.452C626.773,67.155 626.292,67.82 625.589,67.938C624.99,68.038 624.407,67.703 624.177,67.14C618.285,52.71 608.171,43.184 596.677,43.184C580.202,43.184 565.736,63.337 564.113,91.044C561.975,95.64 544.911,99.161 529.19,99.761L529.19,33.519C538.951,13.581 558.276,0.805 575.078,0.805Z" style="fill:rgb(155,38,143);fill-rule:nonzero;"/>
        <path d="M423.464,83.133C423.464,87.863 427.298,91.697 432.029,91.697C436.758,91.697 440.592,87.863 440.592,83.133C440.592,78.403 436.758,74.568 432.029,74.568C427.298,74.568 423.464,78.403 423.464,83.133Z" style="fill:rgb(253,181,37);fill-rule:nonzero;"/>
        <path d="M483.301,0.805C458.462,0.805 437.609,28.717 431.715,66.452C431.606,67.155 432.087,67.82 432.79,67.938C433.389,68.038 433.972,67.703 434.202,67.14C440.095,52.71 450.208,43.184 461.702,43.184C478.177,43.184 492.643,63.337 494.266,91.044C496.404,95.64 513.468,99.161 529.19,99.761L529.19,33.519C519.427,13.581 500.103,0.805 483.301,0.805Z" style="fill:rgb(233,30,119);fill-rule:nonzero;"/>
        <path d="M607.056,154.473C607.446,154.473 607.732,154.135 607.732,153.719C607.732,153.328 607.446,153.016 607.056,153.016L606.276,153.016L606.276,154.473L607.056,154.473ZM605.392,152.184L607.082,152.184C607.992,152.184 608.616,152.808 608.616,153.666C608.616,154.264 608.33,154.759 607.836,155.044L608.98,156.943L607.94,156.943L606.9,155.201L606.276,155.201L606.276,156.943L605.392,156.943L605.392,152.184ZM610.306,154.655C610.306,152.626 608.85,151.248 606.926,151.248C605.001,151.248 603.572,152.626 603.572,154.655C603.572,156.631 605.001,158.009 606.926,158.009C608.85,158.009 610.306,156.631 610.306,154.655ZM602.74,154.655C602.74,152.237 604.612,150.52 606.926,150.52C609.266,150.52 611.165,152.237 611.165,154.655C611.165,157.073 609.266,158.788 606.926,158.788C604.612,158.788 602.74,157.073 602.74,154.655Z" style="fill:rgb(3,4,4);fill-rule:nonzero;"/>
    </g>
</svg>
